<svg width="2892" height="3063" viewBox="0 0 2892 3063" fill="none" xmlns="http://www.w3.org/2000/svg">
<rect width="2892" height="3063" fill="#E5E5E5"/>
<g clip-path="url(#clip0)">
<path d="M2901.46 519.575C2887.03 630.211 2854.19 736.066 2840.09 846.739C2828.84 935.136 2829.58 1026.39 2808.59 1112.01C2787.39 1198.59 2744.92 1275.31 2724.2 1361.96C2723.72 1363.93 2723.25 1365.93 2722.8 1367.89C2717.71 1390.74 2714.03 1414.03 2711.79 1437.57C2711.02 1445.38 2710.37 1453.19 2709.86 1461C2704.48 1542.54 2711.97 1626.42 2714.28 1708.85C2717.49 1823.04 2707.54 1946.8 2647.09 2032.6C2604.87 2092.49 2543.88 2125.26 2484.97 2156.39C2395.89 2203.32 2305.48 2250.68 2209.66 2266.81C2030.08 2296.98 1844.62 2215.21 1668.1 2266.06C1520.17 2308.69 1397.9 2439.23 1253.39 2497.38C1107.09 2556.28 948.15 2537.04 797.253 2500.72C520.164 2434 236.928 2298.31 65.0091 2018.89C42.3241 1982.01 21.2128 1941.05 16.8777 1894.87C13.6709 1861.03 19.8469 1827.01 25.7854 1793.8C52.5086 1645.54 81.4587 1491.65 158.451 1374.16C224.754 1273.01 323.63 1204.07 369.623 1086.65C429.839 932.949 380.402 749.372 322.115 594.704C308.071 557.64 293.284 519.501 290.315 478.509C284.584 401.23 323.363 327.102 374.047 281.921C424.732 236.74 486.106 214.873 546.085 193.672C652.71 156.608 774.924 132.739 874.067 70.8794C970.835 10.4652 1047.92 -7.84443 1159.11 2.90411C1322.82 18.7635 1485.14 52.082 1644.29 102.495C1812.94 156.052 1987.18 229.254 2157.4 183.22C2225.28 164.688 2289.06 128.106 2356.16 105.794C2412.28 87.2616 2470.27 78.6999 2528.38 74.5858C2645.87 66.3205 2779.01 84.7413 2852.92 199.084C2909.15 286.332 2915.92 409.014 2901.46 519.575Z" fill="url(#paint0_linear)" fill-opacity="0.46"/>
<path d="M1606.93 2994.96C1606.93 2994.96 1526.17 2652.52 1622.07 2400.48C1662.34 2294.67 1675.73 2175.93 1657.11 2061.16C1648.17 2006.68 1635.25 1953.34 1618.51 1901.8" stroke="#536157" stroke-width="2" stroke-miterlimit="10"/>
<path d="M1678.37 1742.74C1678.37 1784.69 1617.47 1906.43 1617.47 1906.43C1617.47 1906.43 1556.6 1784.54 1556.6 1742.74C1557.1 1723 1563.73 1704.28 1575.09 1690.53C1586.45 1676.79 1601.65 1669.1 1617.47 1669.1C1633.29 1669.1 1648.49 1676.79 1659.86 1690.53C1671.22 1704.28 1677.85 1723 1678.34 1742.74H1678.37Z" fill="#6C63FF"/>
<path d="M1779 1975.03C1760.74 2010.28 1656.61 2071.13 1656.61 2071.13C1656.61 2071.13 1658.51 1927.67 1676.77 1892.43C1681.01 1883.78 1686.6 1876.28 1693.2 1870.36C1699.8 1864.45 1707.29 1860.25 1715.21 1858C1723.14 1855.76 1731.34 1855.52 1739.34 1857.29C1747.34 1859.06 1754.98 1862.82 1761.8 1868.33C1768.62 1873.84 1774.49 1881 1779.06 1889.39C1783.63 1897.78 1786.8 1907.22 1788.4 1917.16C1790 1927.11 1789.99 1937.35 1788.37 1947.29C1786.75 1957.23 1783.55 1966.66 1778.97 1975.03H1779Z" fill="#6C63FF"/>
<path d="M1774.6 2372.31C1744.58 2391.29 1630.09 2378.17 1630.09 2378.17C1630.09 2378.17 1689.74 2255.5 1719.76 2236.64C1734.13 2228.1 1750.61 2226.91 1765.66 2233.35C1780.72 2239.78 1793.16 2253.31 1800.33 2271.05C1807.49 2288.78 1808.81 2309.32 1803.99 2328.25C1799.18 2347.19 1788.62 2363.02 1774.57 2372.35L1774.6 2372.31Z" fill="#6C63FF"/>
<path d="M1717.03 2671.94C1690.01 2696.89 1575.4 2708.19 1575.4 2708.19C1575.4 2708.19 1617.59 2574.77 1644.61 2549.76C1651.04 2543.82 1658.35 2539.53 1666.11 2537.12C1673.88 2534.71 1681.95 2534.23 1689.86 2535.71C1697.77 2537.19 1705.37 2540.6 1712.22 2545.75C1719.08 2550.9 1725.06 2557.68 1729.81 2565.71C1734.57 2573.74 1738.01 2582.86 1739.94 2592.55C1741.87 2602.24 1742.25 2612.31 1741.07 2622.19C1739.88 2632.06 1737.14 2641.55 1733.02 2650.11C1728.9 2658.66 1723.46 2666.12 1717.03 2672.06V2671.94Z" fill="#6C63FF"/>
<path d="M1528.78 2079.24C1552.89 2108.49 1665.36 2138.8 1665.36 2138.8C1665.36 2138.8 1637.84 1999.49 1613.73 1970.25C1608.02 1963.14 1601.24 1957.52 1593.77 1953.72C1586.31 1949.91 1578.31 1947.99 1570.25 1948.07C1562.18 1948.15 1554.21 1950.23 1546.79 1954.18C1539.38 1958.14 1532.67 1963.89 1527.05 1971.11C1521.43 1978.33 1517.02 1986.87 1514.06 1996.24C1511.11 2005.6 1509.67 2015.61 1509.84 2025.67C1510.01 2035.74 1511.78 2045.66 1515.05 2054.86C1518.32 2064.06 1523.01 2072.36 1528.87 2079.28L1528.78 2079.24Z" fill="#6C63FF"/>
<path d="M1465.03 2430.76C1495.05 2449.66 1609.54 2436.61 1609.54 2436.61C1609.54 2436.61 1549.92 2313.95 1519.84 2294.93C1512.68 2290.17 1504.83 2287.25 1496.76 2286.33C1488.68 2285.41 1480.53 2286.51 1472.8 2289.57C1465.07 2292.64 1457.9 2297.6 1451.73 2304.16C1445.55 2310.73 1440.49 2318.77 1436.84 2327.81C1433.19 2336.85 1431.02 2346.71 1430.47 2356.81C1429.91 2366.91 1430.98 2377.05 1433.6 2386.63C1436.23 2396.21 1440.36 2405.04 1445.76 2412.6C1451.16 2420.16 1457.71 2426.29 1465.03 2430.65V2430.76Z" fill="#6C63FF"/>
<path d="M1440.63 2783.01C1467.65 2807.95 1582.26 2819.26 1582.26 2819.26C1582.26 2819.26 1540.06 2685.84 1513.04 2660.83C1500.05 2648.84 1483.77 2643.79 1467.8 2646.78C1451.82 2649.77 1437.45 2660.56 1427.84 2676.78C1418.24 2693 1414.19 2713.31 1416.59 2733.26C1418.99 2753.2 1427.63 2771.14 1440.63 2783.12V2783.01Z" fill="#6C63FF"/>
<path d="M433.503 2589.08C433.503 2589.08 352.682 2246.61 448.646 1994.56C488.908 1888.76 502.3 1770.02 483.683 1655.24C474.746 1600.76 461.825 1547.42 445.083 1495.89" stroke="#535461" stroke-width="2" stroke-miterlimit="10"/>
<path d="M605.717 1569.15C587.456 1604.4 483.326 1665.25 483.326 1665.25C483.326 1665.25 485.226 1521.79 503.487 1486.55C507.773 1478.01 513.377 1470.62 519.973 1464.81C526.568 1458.99 534.024 1454.88 541.906 1452.7C549.788 1450.51 557.939 1450.31 565.884 1452.09C573.83 1453.88 581.412 1457.62 588.189 1463.1C594.966 1468.57 600.803 1475.68 605.361 1483.99C609.918 1492.31 613.105 1501.68 614.736 1511.55C616.367 1521.41 616.41 1531.59 614.861 1541.48C613.313 1551.37 610.204 1560.78 605.717 1569.15Z" fill="#6C63FF"/>
<path d="M601.293 1966.4C571.274 1985.3 456.781 1972.25 456.781 1972.25C456.781 1972.25 516.433 1849.58 546.451 1830.72C553.612 1825.96 561.461 1823.04 569.54 1822.12C577.618 1821.2 585.763 1822.3 593.495 1825.36C601.227 1828.42 608.391 1833.38 614.566 1839.95C620.741 1846.52 625.803 1854.56 629.455 1863.6C633.107 1872.64 635.274 1882.5 635.83 1892.6C636.386 1902.7 635.32 1912.84 632.694 1922.42C630.068 1932 625.935 1940.83 620.537 1948.39C615.14 1955.94 608.587 1962.08 601.263 1966.43L601.293 1966.4Z" fill="#6C63FF"/>
<path d="M543.72 2266.06C516.7 2291.01 402.089 2302.31 402.089 2302.31C402.089 2302.31 444.281 2168.89 471.301 2143.88C484.294 2131.89 500.57 2126.84 516.549 2129.83C532.527 2132.82 546.899 2143.61 556.502 2159.83C566.105 2176.05 570.154 2196.36 567.757 2216.31C565.359 2236.25 556.713 2254.19 543.72 2266.18V2266.06Z" fill="#6C63FF"/>
<path d="M355.473 1673.37C379.582 1702.61 492.056 1732.92 492.056 1732.92C492.056 1732.92 464.531 1593.61 440.421 1564.37C428.791 1550.63 413.292 1543.17 397.283 1543.59C381.273 1544.01 366.04 1552.28 354.882 1566.62C343.724 1580.95 337.539 1600.2 337.666 1620.18C337.793 1640.17 344.223 1659.29 355.562 1673.4L355.473 1673.37Z" fill="#6C63FF"/>
<path d="M291.724 2024.88C321.742 2043.78 436.235 2030.73 436.235 2030.73C436.235 2030.73 376.583 1908.07 346.565 1889.2C339.405 1884.44 331.555 1881.52 323.476 1880.6C315.398 1879.68 307.254 1880.78 299.521 1883.84C291.789 1886.91 284.625 1891.86 278.45 1898.43C272.275 1905 267.213 1913.04 263.561 1922.08C259.91 1931.12 257.742 1940.98 257.186 1951.08C256.63 1961.18 257.696 1971.32 260.322 1980.9C262.949 1990.48 267.082 1999.31 272.479 2006.87C277.877 2014.42 284.43 2020.56 291.753 2024.92L291.724 2024.88Z" fill="#6C63FF"/>
<path d="M267.228 2377.13C294.248 2402.07 408.859 2413.38 408.859 2413.38C408.859 2413.38 366.666 2279.96 339.647 2254.95C333.213 2249.01 325.906 2244.72 318.142 2242.31C310.378 2239.9 302.31 2239.42 294.399 2240.9C286.487 2242.38 278.887 2245.79 272.031 2250.94C265.176 2256.09 259.2 2262.87 254.445 2270.9C249.69 2278.93 246.249 2288.05 244.318 2297.74C242.387 2307.43 242.004 2317.5 243.191 2327.38C244.378 2337.25 247.111 2346.74 251.236 2355.29C255.36 2363.85 260.794 2371.31 267.228 2377.24V2377.13Z" fill="#6C63FF"/>
<path opacity="0.5" d="M692.18 2199.95C705.244 2215.77 766.083 2232.19 766.083 2232.19C766.083 2232.19 751.237 2156.77 738.113 2140.95C731.841 2133.35 723.406 2129.17 714.664 2129.33C705.921 2129.49 697.588 2133.97 691.497 2141.8C685.406 2149.63 682.056 2160.16 682.184 2171.07C682.312 2181.98 685.907 2192.38 692.18 2199.99V2199.95Z" fill="#6C63FF"/>
<path d="M734.491 2695.7C734.491 2695.7 690.754 2510.4 742.686 2373.83C764.772 2316.78 771.43 2252.31 761.659 2190.13C756.855 2160.65 749.898 2131.78 740.874 2103.89" stroke="#535461" stroke-width="2" stroke-miterlimit="10"/>
<path d="M773.15 2017.65C773.15 2040.37 740.192 2106.26 740.192 2106.26C740.192 2106.26 707.234 2040.37 707.234 2017.65C707.234 2006.74 710.706 1996.28 716.887 1988.56C723.068 1980.85 731.451 1976.52 740.192 1976.52C748.933 1976.52 757.316 1980.85 763.497 1988.56C769.677 1996.28 773.15 2006.74 773.15 2017.65Z" fill="#6C63FF"/>
<path d="M827.635 2143.51C817.747 2162.59 761.392 2195.39 761.392 2195.39C761.392 2195.39 762.401 2117.57 772.318 2098.66C774.672 2094.13 777.717 2090.22 781.282 2087.15C784.847 2084.08 788.861 2081.92 793.094 2080.79C797.328 2079.66 801.698 2079.58 805.956 2080.56C810.214 2081.54 814.276 2083.55 817.91 2086.49C821.544 2089.43 824.68 2093.23 827.136 2097.68C829.593 2102.13 831.324 2107.14 832.23 2112.42C833.135 2117.71 833.199 2123.16 832.415 2128.48C831.632 2133.79 830.017 2138.86 827.664 2143.4L827.635 2143.51Z" fill="#6C63FF"/>
<path d="M825.259 2358.6C809.018 2368.83 747.021 2361.75 747.021 2361.75C747.021 2361.75 779.326 2295.34 795.567 2285.11C803.375 2280.2 812.427 2279.36 820.732 2282.77C829.038 2286.19 835.915 2293.58 839.853 2303.33C843.79 2313.07 844.465 2324.37 841.728 2334.74C838.991 2345.1 833.067 2353.69 825.259 2358.6Z" fill="#6C63FF"/>
<path d="M794.112 2521C779.474 2534.53 717.418 2540.6 717.418 2540.6C717.418 2540.6 740.251 2468.34 754.889 2454.85C761.917 2448.36 770.724 2445.61 779.372 2447.23C788.019 2448.84 795.8 2454.67 801.001 2463.45C806.202 2472.22 808.398 2483.21 807.107 2494C805.815 2504.8 801.141 2514.51 794.112 2521Z" fill="#6C63FF"/>
<path d="M692.18 2199.95C705.244 2215.77 766.083 2232.19 766.083 2232.19C766.083 2232.19 751.237 2156.77 738.113 2140.95C731.841 2133.35 723.406 2129.17 714.664 2129.33C705.921 2129.49 697.588 2133.97 691.497 2141.8C685.406 2149.63 682.056 2160.16 682.184 2171.07C682.312 2181.98 685.907 2192.38 692.18 2199.99V2199.95Z" fill="#6C63FF"/>
<path d="M657.678 2390.25C673.919 2400.48 735.916 2393.4 735.916 2393.4C735.916 2393.4 703.7 2326.99 687.34 2316.76C683.474 2314.33 679.262 2312.87 674.944 2312.47C670.626 2312.07 666.287 2312.73 662.175 2314.42C658.062 2316.11 654.257 2318.8 650.977 2322.33C647.696 2325.85 645.004 2330.15 643.054 2334.98C641.105 2339.8 639.936 2345.06 639.614 2350.45C639.292 2355.84 639.824 2361.25 641.179 2366.39C642.534 2371.52 644.686 2376.27 647.512 2380.36C650.338 2384.46 653.782 2387.82 657.648 2390.25H657.678Z" fill="#6C63FF"/>
<path opacity="0.5" d="M794.112 2521C779.474 2534.53 717.418 2540.6 717.418 2540.6C717.418 2540.6 740.251 2468.34 754.889 2454.85C761.917 2448.36 770.724 2445.61 779.372 2447.23C788.019 2448.84 795.8 2454.67 801.001 2463.45C806.202 2472.22 808.398 2483.21 807.107 2494C805.815 2504.8 801.141 2514.51 794.112 2521Z" fill="#6C63FF"/>
<path d="M644.316 2580.96C658.954 2594.49 721.011 2600.57 721.011 2600.57C721.011 2600.57 698.177 2528.3 683.539 2514.81C680.059 2511.6 676.106 2509.27 671.905 2507.96C667.705 2506.65 663.339 2506.39 659.057 2507.19C654.775 2507.99 650.661 2509.83 646.95 2512.61C643.239 2515.4 640.003 2519.06 637.428 2523.41C634.852 2527.75 632.988 2532.69 631.94 2537.93C630.892 2543.17 630.682 2548.62 631.322 2553.97C631.962 2559.31 633.438 2564.44 635.668 2569.08C637.897 2573.71 640.836 2577.75 644.316 2580.96Z" fill="#6C63FF"/>
<path opacity="0.5" d="M657.678 2390.25C673.919 2400.48 735.916 2393.4 735.916 2393.4C735.916 2393.4 703.7 2326.99 687.34 2316.76C683.474 2314.33 679.262 2312.87 674.944 2312.47C670.626 2312.07 666.287 2312.73 662.175 2314.42C658.062 2316.11 654.257 2318.8 650.977 2322.33C647.696 2325.85 645.004 2330.15 643.054 2334.98C641.105 2339.8 639.936 2345.06 639.614 2350.45C639.292 2355.84 639.824 2361.25 641.179 2366.39C642.534 2371.52 644.686 2376.27 647.512 2380.36C650.338 2384.46 653.782 2387.82 657.648 2390.25H657.678Z" fill="#6C63FF"/>
<path opacity="0.5" d="M773.15 2017.65C773.15 2040.37 740.192 2106.26 740.192 2106.26C740.192 2106.26 707.234 2040.37 707.234 2017.65C707.234 2006.74 710.706 1996.28 716.887 1988.56C723.068 1980.85 731.451 1976.52 740.192 1976.52C748.933 1976.52 757.316 1980.85 763.497 1988.56C769.677 1996.28 773.15 2006.74 773.15 2017.65V2017.65Z" fill="#6C63FF"/>
<path opacity="0.5" d="M827.635 2143.51C817.747 2162.59 761.392 2195.39 761.392 2195.39C761.392 2195.39 762.401 2117.57 772.318 2098.66C774.672 2094.13 777.717 2090.22 781.282 2087.15C784.847 2084.08 788.861 2081.92 793.094 2080.79C797.328 2079.66 801.698 2079.58 805.956 2080.56C810.214 2081.54 814.276 2083.55 817.91 2086.49C821.544 2089.43 824.68 2093.23 827.136 2097.68C829.593 2102.13 831.324 2107.14 832.23 2112.42C833.135 2117.71 833.199 2123.16 832.415 2128.48C831.632 2133.79 830.017 2138.86 827.664 2143.4L827.635 2143.51Z" fill="#6C63FF"/>
<path d="M628.104 1774.32C628.104 1774.32 574.332 1852.66 594.82 1870.49C615.307 1888.31 662.131 1877.57 665.101 1916.92C668.07 1956.28 770.388 1945.42 770.388 1945.42C770.388 1945.42 881.525 2030.96 975.263 2009.57C1069 1988.19 1241.13 1959.54 1241.13 1959.54L1334.71 1955.84C1334.71 1955.84 1410.84 1909.51 1425.48 1916.92C1440.12 1924.33 1495.67 1863.48 1475.22 1820.57C1454.76 1777.65 628.104 1774.32 628.104 1774.32Z" fill="url(#paint1_linear)"/>
<path d="M1085.92 458.931C1079.98 432.989 1069.95 385.07 1048.92 379.067C1044.35 378.236 1039.82 376.998 1035.38 375.361C1026.83 371.247 1020.98 361.537 1013.92 354.274C998.27 338.153 971.369 358.498 951.178 355.904C932.205 353.458 912.311 351.791 894.763 360.87C859.46 379.067 846.009 431.655 820.533 467.306C801.56 493.989 775.698 511.074 751.678 530.308C727.657 549.542 703.962 573.335 693.719 606.614C686.444 630.147 686.622 656.201 688.345 681.364C693.169 750.309 708.935 817.367 734.723 878.634C742.117 896.163 750.371 913.433 754.023 932.704C757.675 951.975 755.834 974.137 745.116 988.554C729.795 1008.9 703.725 1006.64 683 1017.24C700.103 1039.07 725.578 1048.7 749.985 1047.4C774.392 1046.11 797.908 1034.73 819.138 1019.54C873.801 980.363 915.221 915.101 937.906 841.648C948.387 807.516 955.038 770.048 948.654 734.397C943.161 703.748 928.612 677.102 916.379 649.678C904.146 622.254 893.694 591.272 897.614 560.253C901.147 532.309 916.26 508.109 934.996 492.173C950.495 479.017 977.96 461.006 997.349 462.081C1019.26 463.193 1091.86 484.761 1085.92 458.931Z" fill="#252223"/>
<path d="M1094.05 483.827L1123.7 562.329C1129.88 578.689 1136.16 595.436 1137.39 613.191C1138.93 635.095 1132.68 656.959 1134.16 678.862C1135.53 698.982 1143.36 717.862 1152.45 735.268C1208.87 843.466 1321.95 910.649 1433 901.965C1391.03 926.621 1343.03 934.103 1296.12 941.197C1273.44 944.609 1250.41 948.059 1227.81 943.717C1207.19 939.84 1187.81 929.49 1169.62 918.131C1133.33 895.607 1098.82 867.734 1074.05 830.285C1049.28 792.837 1035.05 744.998 1042.14 698.866C1044.62 682.7 1049.65 667.077 1051.68 650.834C1054.77 626.256 1050.91 600.98 1055.17 576.634C1058.85 555.506 1068.42 536.2 1072.71 515.189C1076.59 496.193 1063.42 469.056 1073.25 454.751C1083.82 458.241 1089.76 472.507 1094.05 483.827Z" fill="#252223"/>
<path opacity="0.1" d="M1216.33 1323.41C1216.33 1323.41 1160.75 1366.18 1096.41 1359.06L1216.33 1323.41Z" fill="url(#paint2_linear)"/>
<path opacity="0.1" d="M1274.83 1391.12C1274.83 1391.12 1131.5 1458.83 1075.89 1451.71L1274.83 1391.12Z" fill="url(#paint3_linear)"/>
<path opacity="0.1" d="M894.62 1216.49C894.62 1216.49 1049.64 1234.32 1075.95 1198.67C1075.95 1198.67 1160.78 1230.72 1216.33 1198.67" fill="url(#paint4_linear)"/>
<path d="M730.553 1669.5L888.782 1398.96L863.781 1080.24L1214.83 1044.07L1213.52 979.813L1291.26 1191.05L1527.25 1478.68L1528.88 1481.64L1583.01 1447.14L1377.42 1128.79L1280.24 917.552L1280 916.588C1268.21 868.138 1244.64 825.467 1212.55 794.49C1180.45 763.512 1141.44 745.764 1100.9 743.704C1080.12 742.666 1062.57 740.739 1055.35 737.367C1033.14 726.953 1044.25 623 1044.25 623L894.334 643.791C894.334 643.791 908.26 686.335 918.563 731.548C924.1 756.122 923.017 782.285 915.48 806.014C907.943 829.744 894.369 849.727 876.846 862.889C831.12 897.354 739.045 956.984 751.367 1016.28C770.815 1109.86 791.63 1329.88 791.63 1329.88L700 1659.08" fill="#F0898B"/>
<path d="M1586.71 1461.93L1584.1 1458L1530 1492.65C1540.69 1511.77 1601.26 1616.62 1636.62 1604.02C1675.55 1590.16 1586.71 1461.93 1586.71 1461.93Z" fill="#FDB797"/>
<path d="M1177.47 2475.64C1177.47 2475.64 1205.23 2652.38 1163.57 2693.96C1121.91 2735.54 1096.94 2725.16 1096.94 2725.16V2486.05L1177.47 2475.64Z" fill="#333333"/>
<path d="M653.818 1768.68C653.818 1768.68 602.747 1844.99 622.225 1862.3C641.703 1879.6 686.093 1869.23 688.854 1907.36C691.616 1945.5 788.797 1935.08 788.797 1935.08C788.797 1935.08 894.293 2018.24 983.132 1997.45C1071.97 1976.66 1235.78 1948.94 1235.78 1948.94L1324.62 1945.46C1324.62 1945.46 1396.8 1900.39 1410.73 1907.32C1424.65 1914.25 1477.35 1855.44 1457.94 1813.75C1438.52 1772.06 653.818 1768.68 653.818 1768.68Z" fill="#F0898B"/>
<path opacity="0.2" d="M653.818 1768.68C653.818 1768.68 602.747 1844.99 622.225 1862.3C641.703 1879.6 686.093 1869.23 688.854 1907.36C691.616 1945.5 788.797 1935.08 788.797 1935.08C788.797 1935.08 894.293 2018.24 983.131 1997.45C1071.97 1976.66 1235.78 1948.94 1235.78 1948.94L1324.62 1945.46C1324.62 1945.46 1396.8 1900.39 1410.73 1907.32C1424.65 1914.25 1477.35 1855.44 1457.94 1813.75C1438.52 1772.06 653.818 1768.68 653.818 1768.68Z" fill="black"/>
<path d="M1256.32 1880.02L1217.45 2195.51C1217.45 2195.51 1248 2278.68 1186.9 2403.42L1175.79 2472.72L1100.82 2483.14L1073 1783L1256.32 1880.02Z" fill="#FDB797"/>
<path opacity="0.1" d="M902.636 1838.06L980.37 2087.4C980.37 2087.4 994.266 2191.35 988.714 2212.14C983.161 2232.93 974.818 2433.91 1005.37 2496.28C1035.92 2558.65 1077.55 2794.28 1077.55 2794.28L1160.96 2784.12C1160.96 2784.12 1130.4 2718.27 1130.4 2676.65V2479.12C1130.4 2479.12 1130.4 2343.96 1110.96 2246.94L1118.38 2182.05C1120.81 2160.78 1120.33 2139.15 1116.95 2118.08L1066.48 1803.41L902.636 1838.06Z" fill="black"/>
<path d="M897 1837.65L974.734 2086.99C974.734 2086.99 988.629 2190.94 983.077 2211.73C977.525 2232.52 969.181 2433.5 999.734 2495.87C1030.29 2558.24 1071.8 2794.02 1071.8 2794.02L1155.17 2783.72C1155.17 2783.72 1124.62 2717.86 1124.62 2676.24V2478.71C1124.62 2478.71 1124.62 2343.56 1105.17 2246.53L1112.59 2181.64C1115.03 2160.37 1114.54 2138.74 1111.17 2117.68L1060.69 1803L897 1837.65Z" fill="#FDB797"/>
<path d="M1071.99 2773.41C1071.99 2773.41 1088.65 2835.79 1071.99 2853.13C1055.34 2870.47 1060.89 2984.8 1060.89 2984.8C1060.89 2984.8 1163.62 3036.69 1177.49 2953.6C1177.49 2953.6 1149.73 2797.65 1155.28 2763L1071.99 2773.41Z" fill="#333333"/>
<path d="M1009.56 1023.36C1009.56 1023.36 1145.61 905.548 1217.79 1023.36C1217.79 1023.36 1234.45 1168.9 1217.79 1196.62C1217.79 1196.62 1203.9 1310.98 1226.14 1328.29C1248.38 1345.6 1265 1401.08 1265 1401.08C1265 1401.08 1345.5 1446.14 1356.6 1477.31C1367.71 1508.48 1484.28 1820.37 1484.28 1820.37C1484.28 1820.37 1328.87 1924.21 1273.32 1913.91C1217.76 1903.61 1095.64 1913.91 1095.64 1913.91C1095.64 1913.91 1028.98 1823.82 909.62 1865.4C790.258 1906.98 632 1799.54 632 1799.54L876.306 1387.22C876.306 1387.22 917.875 1317.91 898.515 1238.2C879.156 1158.48 876.306 1051.08 876.306 1051.08C876.306 1051.08 884.649 968.068 1009.56 1023.36Z" fill="#F0898B"/>
<path d="M983.132 711.883C1046 711.883 1096.97 648.269 1096.97 569.796C1096.97 491.323 1046 427.708 983.132 427.708C920.26 427.708 869.292 491.323 869.292 569.796C869.292 648.269 920.26 711.883 983.132 711.883Z" fill="#FDB797"/>
<path opacity="0.1" d="M1212.18 1330.41C1212.18 1330.41 1159.41 1371.99 1098.34 1365.06L1212.18 1330.41Z" fill="#72351C"/>
<path opacity="0.1" d="M1267.85 1396.23C1267.85 1396.23 1131.8 1462.09 1079.07 1455.16L1267.85 1396.23Z" fill="#72351C"/>
<path opacity="0.1" d="M906.793 1226.46C906.793 1226.46 1053.95 1243.8 1079.01 1209.12C1079.01 1209.12 1159.53 1240.32 1212.26 1209.12" fill="#72351C"/>
<path opacity="0.1" d="M891.65 1359.84L742.062 1599.5L736.064 1636.94L891.65 1359.84Z" fill="#72351C"/>
</g>
<defs>
<linearGradient id="paint0_linear" x1="2621.5" y1="84.4998" x2="429" y2="2191.5" gradientUnits="userSpaceOnUse">
<stop offset="0.00359728" stop-color="#FF00E5"/>
<stop offset="1" stop-color="#FCFF63"/>
</linearGradient>
<linearGradient id="paint1_linear" x1="411150" y1="140187" x2="411150" y2="124823" gradientUnits="userSpaceOnUse">
<stop stop-color="#808080" stop-opacity="0.25"/>
<stop offset="0.54" stop-color="#808080" stop-opacity="0.12"/>
<stop offset="1" stop-color="#808080" stop-opacity="0.1"/>
</linearGradient>
<linearGradient id="paint2_linear" x1="61354.4" y1="16037.7" x2="61354.4" y2="15679.4" gradientUnits="userSpaceOnUse">
<stop stop-color="#808080" stop-opacity="0.25"/>
<stop offset="0.54" stop-color="#808080" stop-opacity="0.12"/>
<stop offset="1" stop-color="#808080" stop-opacity="0.1"/>
</linearGradient>
<linearGradient id="paint3_linear" x1="102307" y1="27586.5" x2="102307" y2="26578.6" gradientUnits="userSpaceOnUse">
<stop stop-color="#808080" stop-opacity="0.25"/>
<stop offset="0.54" stop-color="#808080" stop-opacity="0.12"/>
<stop offset="1" stop-color="#808080" stop-opacity="0.1"/>
</linearGradient>
<linearGradient id="paint4_linear" x1="151611" y1="9358.42" x2="151611" y2="9224.5" gradientUnits="userSpaceOnUse">
<stop stop-color="#808080" stop-opacity="0.25"/>
<stop offset="0.54" stop-color="#808080" stop-opacity="0.12"/>
<stop offset="1" stop-color="#808080" stop-opacity="0.1"/>
</linearGradient>
<clipPath id="clip0">
<rect width="2892" height="3063" fill="white"/>
</clipPath>
</defs>
</svg>
